<?xml version="1.0" standalone="no"?>
<!DOCTYPE svg PUBLIC "-//W3C//DTD SVG 20010904//EN"
 "http://www.w3.org/TR/2001/REC-SVG-20010904/DTD/svg10.dtd">
<svg version="1.0" xmlns="http://www.w3.org/2000/svg"
 width="110.000000pt" height="110.000000pt" viewBox="0 0 110.000000 110.000000"
 preserveAspectRatio="xMidYMid meet">
<metadata>
Created by potrace 1.11, written by Peter Selinger 2001-2013
</metadata>
<g transform="translate(0.000000,110.000000) scale(0.100000,-0.100000)"
fill="#000000" stroke="none">
<path d="M417 830 c-14 -12 -32 -39 -38 -61 -9 -29 -19 -41 -38 -46 -67 -17
-121 -1 -121 37 0 29 33 50 79 50 30 0 41 4 39 13 -7 21 -80 20 -116 -3 -27
-17 -32 -26 -32 -58 0 -63 51 -91 131 -73 l41 9 -5 -35 c-8 -44 -11 -47 -35
-34 -30 16 -88 13 -106 -5 -47 -46 32 -93 107 -65 19 7 39 5 76 -10 61 -23 97
-24 108 -5 4 8 24 16 43 18 27 2 36 8 38 25 3 21 0 22 -30 16 l-33 -6 22 25
c22 23 22 25 5 42 -16 18 -16 18 11 12 24 -6 28 -4 25 11 -2 14 -15 19 -56 21
-60 4 -68 -10 -27 -48 l25 -24 -25 -26 c-14 -14 -25 -32 -25 -39 0 -16 -43 -8
-76 14 -21 14 -21 15 -6 70 11 41 27 68 60 100 31 31 43 51 40 67 -4 31 -46
35 -81 8z m45 -27 c-6 -10 -20 -27 -32 -38 l-22 -20 13 30 c13 30 39 58 47 51
2 -2 -1 -13 -6 -23z m-166 -208 c18 -13 17 -14 -18 -15 -36 0 -54 10 -41 24
11 11 38 7 59 -9z"/>
<path d="M615 685 c-14 -13 -25 -36 -25 -50 0 -26 39 -75 60 -75 16 0 53 21
62 34 4 6 8 25 8 41 0 36 -8 48 -37 64 -31 16 -41 14 -68 -14z m60 -14 c3 -5
1 -13 -5 -16 -15 -9 -43 3 -35 15 8 13 32 13 40 1z m5 -61 c12 -8 12 -10 -3
-16 -22 -8 -50 3 -42 16 8 12 25 13 45 0z"/>
<path d="M730 635 c0 -72 1 -75 23 -75 22 0 23 3 19 60 -4 57 -3 60 18 60 21
0 22 -3 18 -60 -4 -56 -3 -61 15 -58 17 3 19 11 19 73 l0 70 -56 3 -56 3 0
-76z"/>
<path d="M717 473 c-18 -27 -42 -63 -53 -81 -17 -31 -19 -31 -26 -11 -5 12 -3
39 3 61 12 45 7 68 -15 68 -25 0 -49 -46 -43 -82 8 -55 -64 -165 -120 -182
-33 -10 -63 10 -63 42 0 36 17 52 52 52 18 0 28 5 28 15 0 24 -55 18 -86 -8
-37 -33 -37 -81 0 -114 53 -46 125 -18 179 69 29 47 32 49 38 27 3 -13 4 -40
1 -60 -3 -23 0 -39 8 -44 19 -11 41 23 38 60 -1 16 10 53 24 80 l26 50 -5 -65
c-5 -72 11 -136 39 -154 25 -15 30 -3 13 30 -29 56 -17 170 30 277 5 13 2 17
-13 17 -13 0 -33 -18 -55 -47z"/>
<path d="M790 245 c-10 -11 -10 -19 -2 -27 15 -15 44 -2 40 19 -4 23 -22 27
-38 8z"/>
</g>
</svg>
